#!OML:ASF F:\VICON\USERDATA\INSTALL\rory3\rory3.ASF
:FULLY-SPECIFIED
:DEGREES
325
root 3.05888 17.7246 10.9342 -7.74867 -20.9868 6.90677
lowerback 32.1231 2.96448 0.189976
upperback 6.32255 4.26101 4.84673
thorax -9.98006 1.92906 3.46591
lowerneck -12.5979 1.52266 -1.33026
upperneck 5.15066 2.6075 -4.16846
head 4.00985 1.046 -0.970763
rclavicle -4.77083e-014 -3.18055e-014
rhumerus 6.60978 4.49287 -52.722
rradius 90.0337
rwrist 12.8933
rhand 12.184 4.69557
rfingers 7.12502
rthumb 37.1947 -21.3183
lclavicle -4.77083e-014 -3.18055e-014
lhumerus -39.2194 3.11519 83.2136
lradius 61.2657
lwrist 9.3237
lhand -10.9801 45.3758
lfingers 7.12502
lthumb 15.0397 74.8095
rfemur -34.8399 -2.38124 15.3006
rtibia 71.5385
rfoot -9.79933 -5.53913
rtoes -5.62765
lfemur -11.8698 -5.55452 -29.5084
ltibia 36.9924
lfoot -13.6362 3.5764
ltoes -9.60083
326
root 3.0295 17.7252 10.7208 -7.16692 -20.8944 6.3327
lowerback 32.2394 3.04511 0.392377
upperback 5.90222 4.47057 4.89188
thorax -10.4982 2.02479 3.31452
lowerneck -12.2958 1.53721 -1.18578
upperneck 5.20977 2.60883 -4.29473
head 3.97607 1.04621 -1.0408
rclavicle -6.04305e-014 -3.65764e-014
rhumerus 6.90038 7.54716 -52.5889
rradius 87.8469
rwrist 14.8787
rhand 11.3874 4.84616
rfingers 7.12502
rthumb 36.4411 -21.3608
lclavicle -6.04305e-014 -3.65764e-014
lhumerus -39.7204 2.6307 83.6444
lradius 61.6071
lwrist 9.63613
lhand -11.4199 45.3052
lfingers 7.12502
lthumb 14.616 74.7701
rfemur -34.3615 -2.09644 15.3897
rtibia 72.6976
rfoot -9.56396 -6.17659
rtoes -4.12387
lfemur -12.9775 -5.46574 -28.5515
ltibia 36.9661
lfoot -13.1967 3.72467
ltoes -7.96888
327
root 2.99664 17.7352 10.5062 -6.46898 -20.8716 5.24552
lowerback 32.1083 3.0727 1.16218
upperback 5.79834 4.77641 4.98043
thorax -10.5266 2.14583 2.88261
lowerneck -12.8137 1.41087 -1.08075
upperneck 5.54238 2.44236 -4.19561
head 4.19653 0.958283 -1.03862
rclavicle -3.97569e-015 -1.74931e-014
rhumerus 7.60529 9.99683 -52.5951
rradius 85.1804
rwrist 16.8338
rhand 9.91467 5.44901
rfingers 7.12502
rthumb 35.0454 -21.0964
lclavicle -3.97569e-015 -1.74931e-014
lhumerus -39.7294 2.06338 84.0224
lradius 62.064
lwrist 10.0143
lhand -12.1386 45.0615
lfingers 7.12502
lthumb 13.9234 74.5753
rfemur -33.6682 -1.77559 16.0648
rtibia 73.6153
rfoot -9.40472 -6.79089
rtoes -1.40644
lfemur -14.1251 -5.37551 -27.0615
ltibia 37.2168
lfoot -12.4789 4.0219
ltoes -6.6634
328
root 2.96477 17.7577 10.3458 -6.59476 -20.8213 5.22012
lowerback 31.6072 3.26894 1.27219
upperback 6.19739 4.99382 4.77436
thorax -9.85684 2.24986 2.55103
lowerneck -13.5078 1.17806 -1.14635
upperneck 5.93401 2.14548 -3.96219
head 3.99615 0.801552 -0.879801
rclavicle -8.42847e-014 -2.54444e-014
rhumerus 8.67795 11.7943 -52.7127
rradius 82.285
rwrist 18.5427
rhand 8.56424 5.84572
rfingers 7.12502
rthumb 33.7633 -20.9903
lclavicle -8.42847e-014 -2.54444e-014
lhumerus -39.1975 1.30525 84.3701
lradius 62.4069
lwrist 10.1373
lhand -12.6364 44.6728
lfingers 7.12502
lthumb 13.4437 74.219
rfemur -32.1035 -1.61788 15.4093
rtibia 74.3202
rfoot -9.27147 -7.04021
rtoes 1.72119
lfemur -14.5222 -5.48766 -26.8529
ltibia 37.4331
lfoot -12.276 4.59411
ltoes -3.91215
329
root 2.92297 17.7453 10.1164 -6.21422 -20.1638 4.64395
lowerback 32.1815 3.31009 1.48863
upperback 5.75058 5.18111 4.84219
thorax -10.5847 2.32325 2.4033
lowerneck -13.3781 0.890791 -1.37403
upperneck 6.06489 1.76082 -3.51599
head 4.00269 0.630877 -0.734256
rclavicle -5.40694e-014 -1.90833e-014
rhumerus 8.84133 13.9609 -52.9368
rradius 79.5616
rwrist 19.9834
rhand 7.07507 5.89532
rfingers 7.12502
rthumb 32.3471 -21.2404
lclavicle -5.40694e-014 -1.90833e-014
lhumerus -39.5833 0.49284 84.6856
lradius 62.9852
lwrist 9.97596
lhand -11.3056 45.347
lfingers 7.12502
lthumb 14.7261 74.8039
rfemur -31.1033 -1.71296 15.5313
rtibia 75.0091
rfoot -8.94719 -7.81828
rtoes 4.64264
lfemur -15.6083 -5.64906 -25.8323
ltibia 37.6113
lfoot -11.7884 4.39944
ltoes -4.2264
330
root 2.88134 17.7295 9.88968 -5.4837 -19.6108 3.63384
lowerback 32.1644 3.27851 2.17201
upperback 5.46622 5.41596 5.01143
thorax -10.8622 2.41062 2.12322
lowerneck -13.2182 0.636759 -1.53815
upperneck 5.72175 1.40716 -3.15807
head 4.30564 0.483747 -0.683602
rclavicle 2.94201e-014 1.1609e-013
rhumerus 9.0275 15.9488 -53.0316
rradius 76.7915
rwrist 21.3504
rhand 5.93421 5.96629
rfingers 7.12502
rthumb 31.2606 -21.3852
lclavicle 2.94201e-014 1.1609e-013
lhumerus -39.618 -0.220244 85.082
lradius 63.22
lwrist 9.8468
lhand -10.0015 45.6385
lfingers 7.12502
lthumb 15.9822 74.9992
rfemur -30.2211 -1.68776 16.1301
rtibia 75.4877
rfoot -8.27061 -8.50072
rtoes 5.3231
lfemur -16.9324 -5.63069 -24.3076
ltibia 37.7805
lfoot -11.3322 4.08151
ltoes -6.2485
